<svg width="156" height="176" viewBox="0 0 156 176" fill="none" xmlns="http://www.w3.org/2000/svg">
<path d="M63 143.5H23.3088C19.7878 143.5 16.0903 143.236 13.3189 141.064V141.064C7.23432 136.296 7 127.586 7 119.856V55.1488C7 48.0742 7.05881 40.3352 11.8649 35.1438C13.7083 33.1526 16.0733 31.6626 19 31.5C26.2 31.1 35 31.3333 38.5 31.5C40.8333 31.5 44.8075 29.5168 48 24.5L52.6558 16.4113C55.0443 12.0468 58.0247 7 63 7H78H93C97.9753 7 100.956 12.0468 103.344 16.4113L108 24.5C111.192 29.5168 115.167 31.5 117.5 31.5C121 31.3333 129.8 31.1 137 31.5C139.927 31.6626 142.292 33.1526 144.135 35.1438C148.941 40.3352 149 48.0742 149 55.1488V119.856C149 127.586 148.766 136.296 142.681 141.064V141.064C139.91 143.236 136.212 143.5 132.691 143.5H93M63 143.5L38.5 119.856M63 143.5L38.5 168.5" fill="none" stroke="white" stroke-width="14" stroke-linecap="round" stroke-linejoin="round"/>
<path d="M77.5 123C96.0015 123 111 108.002 111 89.5C111 70.9985 96.0015 56 77.5 56C58.9985 56 44 70.9985 44 89.5" fill="none" stroke="white" stroke-width="14" stroke-linecap="round" stroke-linejoin="round"/>
</svg>