<svg width="242" height="178" viewBox="0 0 242 178" fill="none" xmlns="http://www.w3.org/2000/svg">
<path d="M39 140.5C39 148.916 31.9824 156 23 156C14.0176 156 7 148.916 7 140.5C7 132.084 14.0176 125 23 125C31.9824 125 39 132.084 39 140.5Z" stroke="white" stroke-width="14"/>
<path d="M80 73C80 83.3683 71.3959 92 60.5 92C49.6041 92 41 83.3683 41 73C41 62.6317 49.6041 54 60.5 54C71.3959 54 80 62.6317 80 73Z" stroke="white" stroke-width="14"/>
<path d="M171 148C171 160.594 160.588 171 147.5 171C134.412 171 124 160.594 124 148C124 135.406 134.412 125 147.5 125C160.588 125 171 135.406 171 148Z" stroke="white" stroke-width="14"/>
<path d="M235 33.5C235 48.0381 223.01 60 208 60C192.99 60 181 48.0381 181 33.5C181 18.9619 192.99 7 208 7C223.01 7 235 18.9619 235 33.5Z" stroke="white" stroke-width="14"/>
<line x1="30.2794" y1="119.98" x2="46.2794" y2="92.9804" stroke="white" stroke-width="4"/>
<line x1="38.2794" y1="124.98" x2="54.2794" y2="97.9804" stroke="white" stroke-width="4"/>
<line x1="123.785" y1="132.589" x2="72.7851" y2="93.5887" stroke="white" stroke-width="4"/>
<line x1="129.81" y1="124.608" x2="79.8103" y2="87.6077" stroke="white" stroke-width="4"/>
<line x1="153.285" y1="119.971" x2="189.285" y2="59.971" stroke="white" stroke-width="4"/>
<line x1="162.283" y1="124.975" x2="199.283" y2="62.9751" stroke="white" stroke-width="4"/>
</svg>